<?xml version="1.0" encoding="UTF-8"?>
<svg id="Capa_1" data-name="Capa 1" xmlns="http://www.w3.org/2000/svg" xmlns:xlink="http://www.w3.org/1999/xlink" viewBox="0 0 568.63 491.01">
  <defs>
    <style>
      .cls-1 {
        fill: url(#Nueva_muestra_de_degradado_2-22);
      }

      .cls-1, .cls-2, .cls-3, .cls-4, .cls-5, .cls-6, .cls-7, .cls-8, .cls-9, .cls-10, .cls-11, .cls-12, .cls-13, .cls-14, .cls-15, .cls-16, .cls-17, .cls-18, .cls-19, .cls-20, .cls-21, .cls-22, .cls-23, .cls-24 {
        stroke: #1d1d1b;
        stroke-miterlimit: 10;
        stroke-width: 2.19px;
      }

      .cls-2 {
        fill: url(#Nueva_muestra_de_degradado_2-18);
      }

      .cls-3 {
        fill: url(#Nueva_muestra_de_degradado_2-24);
      }

      .cls-4 {
        fill: url(#Nueva_muestra_de_degradado_2-15);
      }

      .cls-5 {
        fill: url(#Nueva_muestra_de_degradado_2-4);
      }

      .cls-6 {
        fill: url(#Nueva_muestra_de_degradado_2-8);
      }

      .cls-7 {
        fill: url(#Nueva_muestra_de_degradado_2-17);
      }

      .cls-8 {
        fill: url(#Nueva_muestra_de_degradado_2-20);
      }

      .cls-9 {
        fill: url(#Nueva_muestra_de_degradado_2-12);
      }

      .cls-10 {
        fill: url(#Nueva_muestra_de_degradado_2-19);
      }

      .cls-11 {
        fill: url(#Nueva_muestra_de_degradado_2-21);
      }

      .cls-12 {
        fill: url(#Nueva_muestra_de_degradado_2-9);
      }

      .cls-13 {
        fill: url(#Nueva_muestra_de_degradado_2-3);
      }

      .cls-14 {
        fill: url(#Nueva_muestra_de_degradado_2-2);
      }

      .cls-15 {
        fill: url(#Nueva_muestra_de_degradado_2-11);
      }

      .cls-16 {
        fill: url(#Nueva_muestra_de_degradado_2-16);
      }

      .cls-17 {
        fill: url(#Nueva_muestra_de_degradado_2-5);
      }

      .cls-18 {
        fill: url(#Nueva_muestra_de_degradado_2-6);
      }

      .cls-19 {
        fill: url(#Nueva_muestra_de_degradado_2-14);
      }

      .cls-20 {
        fill: url(#Nueva_muestra_de_degradado_2-23);
      }

      .cls-21 {
        fill: url(#Nueva_muestra_de_degradado_2-10);
      }

      .cls-22 {
        fill: url(#Nueva_muestra_de_degradado_2-13);
      }

      .cls-23 {
        fill: url(#Nueva_muestra_de_degradado_2);
      }

      .cls-24 {
        fill: url(#Nueva_muestra_de_degradado_2-7);
      }
    </style>
    <linearGradient id="Nueva_muestra_de_degradado_2" data-name="Nueva muestra de degradado 2" x1="10.74" y1="197.42" x2="227.45" y2="197.42" gradientUnits="userSpaceOnUse">
      <stop offset=".06" stop-color="#fdc800"/>
      <stop offset=".19" stop-color="#ea6632"/>
      <stop offset=".4" stop-color="#f08c33"/>
      <stop offset=".41" stop-color="#f18f34"/>
      <stop offset=".57" stop-color="#e95f32"/>
      <stop offset=".62" stop-color="#e75030"/>
      <stop offset=".71" stop-color="#e3312d"/>
    </linearGradient>
    <linearGradient id="Nueva_muestra_de_degradado_2-2" data-name="Nueva muestra de degradado 2" x1="16.69" y1="141.95" x2="224.71" y2="141.95" xlink:href="#Nueva_muestra_de_degradado_2"/>
    <linearGradient id="Nueva_muestra_de_degradado_2-3" data-name="Nueva muestra de degradado 2" x1="65.14" y1="368.25" x2="103.4" y2="368.25" xlink:href="#Nueva_muestra_de_degradado_2"/>
    <linearGradient id="Nueva_muestra_de_degradado_2-4" data-name="Nueva muestra de degradado 2" x1="78.45" y1="280.74" x2="238.05" y2="280.74" xlink:href="#Nueva_muestra_de_degradado_2"/>
    <linearGradient id="Nueva_muestra_de_degradado_2-5" data-name="Nueva muestra de degradado 2" x1="99.93" y1="125.55" x2="217.83" y2="125.55" xlink:href="#Nueva_muestra_de_degradado_2"/>
    <linearGradient id="Nueva_muestra_de_degradado_2-6" data-name="Nueva muestra de degradado 2" x1="36.32" y1="265" x2="211.94" y2="265" xlink:href="#Nueva_muestra_de_degradado_2"/>
    <linearGradient id="Nueva_muestra_de_degradado_2-7" data-name="Nueva muestra de degradado 2" x1="359.27" y1="262.5" x2="511.46" y2="262.5" xlink:href="#Nueva_muestra_de_degradado_2"/>
    <linearGradient id="Nueva_muestra_de_degradado_2-8" data-name="Nueva muestra de degradado 2" x1="229.09" y1="386.55" x2="350.06" y2="386.55" xlink:href="#Nueva_muestra_de_degradado_2"/>
    <linearGradient id="Nueva_muestra_de_degradado_2-9" data-name="Nueva muestra de degradado 2" x1="293.81" y1="387.6" x2="389.83" y2="387.6" xlink:href="#Nueva_muestra_de_degradado_2"/>
    <linearGradient id="Nueva_muestra_de_degradado_2-10" data-name="Nueva muestra de degradado 2" x1="281.09" y1="397.68" x2="365.67" y2="397.68" xlink:href="#Nueva_muestra_de_degradado_2"/>
    <linearGradient id="Nueva_muestra_de_degradado_2-11" data-name="Nueva muestra de degradado 2" x1="378.58" y1="402.08" x2="408.38" y2="402.08" xlink:href="#Nueva_muestra_de_degradado_2"/>
    <linearGradient id="Nueva_muestra_de_degradado_2-12" data-name="Nueva muestra de degradado 2" x1="345.28" y1="195.81" x2="532.1" y2="195.81" xlink:href="#Nueva_muestra_de_degradado_2"/>
    <linearGradient id="Nueva_muestra_de_degradado_2-13" data-name="Nueva muestra de degradado 2" x1="375.08" y1="366.97" x2="449.68" y2="366.97" xlink:href="#Nueva_muestra_de_degradado_2"/>
    <linearGradient id="Nueva_muestra_de_degradado_2-14" data-name="Nueva muestra de degradado 2" x1="344.29" y1="284.51" x2="478.77" y2="284.51" xlink:href="#Nueva_muestra_de_degradado_2"/>
    <linearGradient id="Nueva_muestra_de_degradado_2-15" data-name="Nueva muestra de degradado 2" x1="51.12" y1="97.7" x2="185.89" y2="97.7" xlink:href="#Nueva_muestra_de_degradado_2"/>
    <linearGradient id="Nueva_muestra_de_degradado_2-16" data-name="Nueva muestra de degradado 2" x1="258.26" y1="194.7" x2="341.91" y2="194.7" xlink:href="#Nueva_muestra_de_degradado_2"/>
    <linearGradient id="Nueva_muestra_de_degradado_2-17" data-name="Nueva muestra de degradado 2" x1="339.16" y1="126" x2="440" y2="126" xlink:href="#Nueva_muestra_de_degradado_2"/>
    <linearGradient id="Nueva_muestra_de_degradado_2-18" data-name="Nueva muestra de degradado 2" x1="339.96" y1="140.88" x2="522.6" y2="140.88" xlink:href="#Nueva_muestra_de_degradado_2"/>
    <linearGradient id="Nueva_muestra_de_degradado_2-19" data-name="Nueva muestra de degradado 2" x1="353.04" y1="103.94" x2="485.82" y2="103.94" xlink:href="#Nueva_muestra_de_degradado_2"/>
    <linearGradient id="Nueva_muestra_de_degradado_2-20" data-name="Nueva muestra de degradado 2" x1="199.62" y1="90.56" x2="317.66" y2="90.56" xlink:href="#Nueva_muestra_de_degradado_2"/>
    <linearGradient id="Nueva_muestra_de_degradado_2-21" data-name="Nueva muestra de degradado 2" x1="153.4" y1="351.59" x2="312.09" y2="351.59" xlink:href="#Nueva_muestra_de_degradado_2"/>
    <linearGradient id="Nueva_muestra_de_degradado_2-22" data-name="Nueva muestra de degradado 2" x1="198.26" y1="378.18" x2="322.09" y2="378.18" xlink:href="#Nueva_muestra_de_degradado_2"/>
    <linearGradient id="Nueva_muestra_de_degradado_2-23" data-name="Nueva muestra de degradado 2" x1="95.76" y1="290.43" x2="296.83" y2="290.43" xlink:href="#Nueva_muestra_de_degradado_2"/>
    <linearGradient id="Nueva_muestra_de_degradado_2-24" data-name="Nueva muestra de degradado 2" x1="153.85" y1="341.66" x2="280.18" y2="341.66" xlink:href="#Nueva_muestra_de_degradado_2"/>
  </defs>
  <path class="cls-23" d="M227.45,239c-10.1-3.16-25.33-7.59-44.19-11.76-19.56-4.32-21.82-3.68-39.86-7.48-35.55-7.48-59.71-16.91-67.58-20.09-17.96-7.26-28.15-11.48-39.94-21.08-12.45-10.15-20.37-21.16-25.14-28.99,1.47,17.89,5.16,31.36,8.25,40.33,2.03,5.86,3.39,8.6,4.24,10.2,2.06,3.87,8.35,14.58,24.4,24.68,22.68,14.27,49.36,17.59,62.03,19.06,19.73,2.28,35.98,1.39,65.28-.2,10.59-.58,19.35-1.29,25.34-1.82,9.05-.95,18.11-1.89,27.16-2.84Z"/>
  <path class="cls-14" d="M200.39,206.87c-11.4-7.05-19.04-10.4-46.22-23.41-8.83-4.23-17.63-8.53-26.45-12.77-17.83-8.58-45.4-26.36-87.27-67.2-4.29-4.74-9.87-11.97-14.37-21.84-3.85-8.45-5.69-16.15-6.62-21.95-1.26,6.68-2.57,15.96-2.74,27.06-.08,4.91-.3,19.29,2.74,31.93,7.56,31.51,34.92,50.36,45.49,57.65,13.81,9.52,24.9,13.4,45.21,20.52,18.48,6.47,29,8.18,83.53,20.36,13.5,3.01,24.4,5.49,31.02,6.99-9.39-7.64-17.82-13.31-24.33-17.33Z"/>
  <path class="cls-13" d="M100.24,341.78c-3.22,2.62-7.62,6.69-11.85,12.44-3.95,5.37-9.65,14.74-12.18,27.35-2.63,13.07-.26,21.58-2.32,22.04-2.02.45-6.52-7.36-8.11-15.71-2.99-15.73,5.17-29.08,9.33-35.88,0,0,4.7-7.7,18.75-17.84.86-.62,2.35-1.61,3.85-1.22,1.13.29,1.24,1.1,3.75,3.34,1.39,1.24,1.84,1.43,1.93,2.03.2,1.48-2.22,2.93-3.14,3.45Z"/>
  <path class="cls-5" d="M237.79,243.97c-.93-.57-4.08,4.79-12.16,11.56-6.26,5.24-12.21,8.58-16.42,10.64-3.62,2.05-8.6,4.8-14.6,7.91-2.76,1.43-12.43,6.44-20.68,10.03-15.5,6.76-29.03,9.87-36.49,11.56-13.7,3.09-33.9,6.27-58.99,5.47,5.66,3.1,13.74,7.03,23.89,10.34,10.46,3.41,18.95,6.18,29.93,6.08,13-.12,22.57-4.22,40.44-11.86,9.4-4.02,16.33-7.79,19.77-9.73,12.25-6.91,20.69-11.68,28.58-20.07,13.04-13.87,18.27-30.98,16.72-31.93Z"/>
  <path class="cls-17" d="M217.42,205.65c-1.16.59-3.13-3.94-9.12-8.21-6.32-4.51-8.79-2.79-12.47-6.69-3.64-3.85-2.19-6.55-6.08-12.77-2.01-3.22-4.3-5.55-8.21-8.82-9.86-8.26-19.86-13.79-23.46-16.19-18.44-12.29-29.99-25.9-35.23-32.16-8.17-9.77-12.2-16.87-14.05-20.37-2.54-4.78-5.8-10.91-7.54-18.25-3.41-14.38.35-27.79,4.26-36.79,3.28,15.1,8.24,24.42,11.71,29.74,6.06,9.29,17.83,23.67,17.83,23.67,0,0,0,0,0,0,12.89,15.04,25.94,28.65,25.94,28.65,13.96,13.89,20.95,20.83,29.06,26.19,1.66,1.1,6.12,3.95,10.64,9.12,3.8,4.34,6.11,8.57,7.45,11.4,1.98,4.55,4.62,11.12,7.15,19.31,3.18,10.32,2.7,11.88,2.13,12.16Z"/>
  <path class="cls-18" d="M199.65,252.78s-16.19,2.46-30.43,3.96c-16.57,1.74-35.1,3.7-59.35,2.38-9.96-.54-32.84-2.28-61.07-9.53-5.13-1.32-9.41-2.55-12.49-3.48,6.19,8.73,17.16,21.21,34.53,29.48,21.54,10.25,41.43,8.56,54.42,7.46,17.56-1.49,30.3-6.15,42.92-10.77,18.97-6.94,33.72-15.16,43.75-21.48-3.04.52-7.26,1.21-12.29,1.97Z"/>
  <path class="cls-24" d="M500.21,245.49c-6.03,1.65-10.67,2.82-13.99,3.65-4.85,1.22-9.73,2.4-11.86,2.89-14.1,3.25-29.3,4.32-31.66,4.48-19.02,1.29-34.59-.31-47.09-1.59-3.04-.31-12.09-1.31-20.25-1.86-.93-.06-3.81-.25-7.73-.58-3.52-.29-6.42-.57-8.36-.76,3.93,2.8,9.75,6.67,17.18,10.64,16.18,8.64,30.18,12.5,39.68,15.05,5.39,1.45,12.78,3.22,21.74,4.71,4.09.57,9.52.91,15.81.15,5-.6,9.26-1.74,12.62-2.89,3.81-1.15,8.62-3.04,13.68-6.23,2.95-1.86,5.42-3.81,7.45-5.63,3.93-2.91,8.39-6.66,12.92-11.4,4.68-4.9,8.32-9.67,11.1-13.84-2.93.86-6.76,1.96-11.25,3.19Z"/>
  <path class="cls-6" d="M346.5,305.85c-1.45-5.33-3.19-9.78-3.65-10.95-1.82-4.6-3.74-8.52-5.47-11.71.15,4.61.3,9.22.46,13.84-.36,2.84-.89,6.29-1.67,10.19,0,0-1.17,5.8-2.74,11.25-4.96,17.22-14.01,31.82-14.01,31.82-11.85,19.12-27.08,30.8-36.22,38.02-5.52,4.35-11.02,8.72-16.53,13.08-7.71,6.11-12.02,10.1-17.03,15.78-3.11,3.53-8.1,9.25-12.45,17.61-1.62,3.11-5.33,10.76-7.3,21.29-1.01,5.37-.87,10.42-.61,20.53.08,2.93.23,5.84,2.28,7.75,2.03,1.9,3.86.89,9.12,2.43,5.55,1.63,7.44,3.91,9.12,2.89,1.63-.99,1.22-3.98,1.22-6.69-.02-6.54,1.99-11.17,5.32-18.85,4.45-10.27,10.72-16.78,12.01-18.09,1.88-1.91,4.95-4.47,11.1-9.58,2.22-1.84,4.99-4.14,8.67-6.99,4.36-3.38,7.77-5.8,12.01-8.82,8.47-6.02,9.52-6.43,13.23-9.58,3.13-2.66,5.65-5.14,7.3-6.84,2.38-2.45,4.4-4.77,6.08-6.84,3.83-5.03,6.8-9.48,8.97-12.92,2.32-3.68,4.14-6.58,6.08-10.64,2.66-5.56,4.22-10.55,5.17-14.29,1.83-7.59,2.58-14.12,2.89-19,.34-5.26.85-19.29-3.34-34.67Z"/>
  <path class="cls-12" d="M389.83,375.63c-.21,5.4-.9,11.96-2.64,19.26-1.48,6.22-3.39,11.58-5.27,16.01-.9,1.86-5.4,10.5-6.69,12.77-2.82,4.48-6.46,9.5-11.15,14.6-2.69,2.93-5.36,5.48-7.91,7.7-2.54,2.56-5.37,5.22-8.51,7.91-3.72,3.17-7.33,5.93-10.74,8.31-3.29,2.1-7.37,4.61-12.16,7.3-1.2.67-5.25,2.94-10.74,5.68,0,0-4.99,2.49-13.38,5.88-5.09,2.05-6.26,2.33-6.69,1.82-.32-.38-.61-1.66,5.93-9.87,8.53-10.72,16.62-18.1,19.82-20.94,2.03-1.81,2.71-2.26,8.11-6.89,3.61-3.1,1.94-1.7,9.33-8.11,3.29-2.86,4.29-3.71,5.88-5.27,2.03-2,3.4-3.54,5.27-5.68,6.38-7.27,9.57-10.91,11.15-12.97,2.77-3.61,4.52-5.9,6.49-9.33,3.54-6.18,5.08-11.37,6.69-16.83,1.27-4.28,2.78-9.5,3.45-16.62.14-1.53.57-5.63.2-11.35-.57-8.79-2.24-20.62-6.83-33.88-5-14.45-11.7-25.5-17.09-33.02,3.04,2.24,6.91,5.43,10.91,9.73.89.96,4.38,4.75,8.14,10.34,13.45,19.99,16.83,42.64,16.83,42.64.36,2.92.67,5.93.93,9.05.34,4.07.56,7.99.68,11.76Z"/>
  <path class="cls-21" d="M355.37,396.79c-2.76,5.36-5.57,9.47-6.7,11.08-4.4,6.28-8.62,10.59-11.76,13.78-2.91,2.96-5.05,4.88-7.5,7.1-10.09,9.13-20.7,17.67-31.02,26.56-3.1,2.67-7.21,6.24-11.96,5.47-1.77-.29-4.73-1.36-5.27-3.45-.73-2.81,3.49-5.29,15-14.6,3.05-2.46,8.51-7.13,19.46-16.42,1.61-1.37,3.24-2.79,4.89-4.27,2.33-2.1,4.56-4.18,6.67-6.24,9.09-8.76,17.29-18.22,23.14-29.52,4.02-7.64,6.8-15.71,8.44-24.2.61-3.15.76-6.3.9-7.92.67-8.17.47-14.96.16-19.69,4.87,10.72,5.76,19.88,5.84,25.38.25,16.47-6.29,29.16-10.29,36.93Z"/>
  <path class="cls-15" d="M406.76,400.13c-.51,2.82-1.25,6-2.34,9.42-1.08,3.38-2.29,6.37-3.49,8.95-1.1,2.18-2.58,4.69-4.56,7.3-2.81,3.69-5.75,6.42-8.19,8.36l-.1.03c-1.08.14-2.17.28-3.27.43-2.11.29-4.18.59-6.23.91,6.25-6,9.9-11.79,11.98-15.69.5-.94,2.01-3.84,3.52-7.85,1.93-5.15,2.95-9.7,3.51-13.1.51-2.74,1.01-5.47,1.52-8.21,1.09-13.24.74-18.26,0-19.92-.1-.22-.54-1.13-.15-1.67.46-.64,1.64-.15,3.95-.15,2.5,0,2.95-.58,3.8-.15,1.64.83,1.67,3.88,1.67,5.02,0,8.13-1.44,24.37-1.62,26.33Z"/>
  <path class="cls-9" d="M511.16,172.66c-11.93,9.54-28.47,20.92-49.72,30.71-21.77,10.04-41.62,15.25-56.86,18.09-11.05,2.51-22.93,5.73-35.43,9.88-8.47,2.81-16.43,5.78-23.87,8.82,5.27.5,10.59.95,15.96,1.37,19.89,1.53,39.19,2.39,57.82,2.67h0c6.31-.24,13.17-.77,20.48-1.72,6.71-.87,12.95-1.99,18.69-3.24,5.63-1.28,12.23-3.21,19.36-6.15,6.84-2.82,12.66-5.96,17.43-8.9,6.46-4.14,16.85-12.06,25.09-25.39,13.47-21.78,12.33-43.67,11.56-51.39-1.5,2.6-3.21,5.3-5.17,8.06-5.07,7.14-10.45,12.79-15.36,17.18Z"/>
  <path class="cls-22" d="M445.93,364.08s-6.4-17.51-20.83-30.1c-2.25-1.97-5.61-4.7-10.03-7.6-2.27-1.52-4.6-3.04-6.99-4.56-1.22-.78-2.44-1.54-3.65-2.28-1.97-1.45-4.14-2.94-6.54-4.41-2.93-1.8-5.74-3.3-8.36-4.56-1.92-.99-3.96-1.97-6.13-2.93-2.89-1.28-5.68-2.37-8.32-3.31,2.57,2.7,5.15,5.4,7.72,8.11,3.16,3.32,5.81,6.11,6.24,6.57,2.8,2.95,8.51,9.17,13.4,14.96,7.23,8.57,11.72,13.87,16.42,21.74,0,0,4.45,7.46,8.06,16.42,9.14,22.69,9.41,48.27,9.27,57.47,2.46-6.87,4.8-12.16,6.54-15.81.86-1.8,1.37-2.8,2.13-4.56,2.44-5.69,3.63-10.63,4.26-13.99.86-6.78,1.32-18.25-3.19-31.17Z"/>
  <path class="cls-19" d="M470.11,298.7c-8.38.29-15.02.09-17.18,0-14.51-.63-30.49-5.48-34.82-6.84-12.88-4.05-21.84-8.56-39.23-17.41-8.75-4.46-20.66-10.78-34.59-19,1.49,2.3,3.68,5.56,6.46,9.35,2.41,3.29,7.92,10.79,14.14,17.18,12.94,13.29,27.09,19.85,33.6,22.81,7.99,3.62,15.26,5.86,21.13,7.3,6.17,1.28,14.66,2.2,24.48.76,9.57-1.4,16.5-4.47,20.07-6.08,6.21-2.81,11.09-5.95,14.6-8.51-2.12.15-5.1.33-8.67.46Z"/>
  <path class="cls-4" d="M136.02,148.99c-6.19-5.31-12.59-11.15-19.09-17.53-5.29-5.19-10.2-10.31-14.77-15.31-2.7-3.19-5.94-7.32-9.33-12.37-.89-1.32-3.29-4.95-6.08-9.93-2.71-4.83-5.99-11.29-9.12-19.26-2.48-6.25-4.85-13.39-6.74-21.36-4.1-17.26-4.62-32.62-4-44.52-.96,3.11-2.16,6.44-3.65,9.93-.86,2-1.74,3.9-2.64,5.68-3.22,5.69-7.8,15.48-9.12,28.38-1.81,17.6,3.48,30.95,6.08,37.3,7.32,17.87,19.5,30.78,39.12,46.02,18.56,14.41,47.86,34.08,89.2,50.68-2.96-1.98-5.94-4-8.92-6.08-14.82-10.33-28.44-20.95-40.95-31.62Z"/>
  <path class="cls-16" d="M327.39,115.44c-3.91-1.03-6.98-.76-10.74-.41-6.31.6-10.96,2.13-15.61,3.7-1.33.45-5.94,2.03-11.71,4.81-3.49,1.68-6,2.89-9.07,4.97-5.9,3.98-9.54,8.21-10.63,9.51-4.68,5.61-7.09,11.05-8.27,14.21-2.5,6.67-3.04,12.56-3.09,16.42-.04,2.42.1,5.97,1.01,10.14,2,9.1,6.43,15.22,9.12,18.85,2.95,3.99,6.24,6.98,12.77,12.97,4.42,4.05,5.79,4.94,11.76,10.34,3.9,3.52,7.87,7.27,9.93,9.33,4.6,4.58,11.22,12.23,18.04,24.53,1.79,3.31,3.63,7.26,5.2,11.83.98,2.85,1.73,5.54,2.3,8.04,1.33-6.06,2.04-11.09,2.43-14.8.12-1.13.41-4,.61-7.7.08-1.59.22-4.19.2-7.5-.01-2.33-.24-5.48-.41-9.12-.14-3.06-.68-7.55-2.64-12.57-1.14-2.92-2.86-6.27-6.49-10.95-3.28-4.22-6.37-7.27-17.96-17.22-1.99-1.71-8.15-6.15-13.2-12.14-.67-.8-1.57-1.91-2.49-3.48-2.51-4.32-3.1-8.58-3.23-11.32-.22-1.35-.38-2.89-.41-4.58-.06-3.35.43-6.22,1-8.42.24-1.35.68-3.06,1.5-4.93,0,0,.84-1.91,2.15-3.79,1.34-1.92,5.86-7.57,14.29-11.3,4.15-1.83,7.64-2.5,11.3-3.19,3.77-.72,6.98-1,9.33-1.11,1.48-.03,3.4.07,5.57.56,1.86.42,3.41,1.01,4.61,1.57,2.24,1.52,3.75,3.02,4.75,4.13.81.91,1.48,1.81,1.99,1.64.12-.04.69-.29.56-3.04-.21-4.29-.54-10.96-6.03-15.81-3.12-2.75-6.42-3.62-8.46-4.16Z"/>
  <path class="cls-7" d="M434.9,43.88c-7.69,25.41-18.26,43.36-26.52,55.04-9.62,13.61-34.85,40.41-47.04,51.89-5.08,4.78-7.78,8.29-13.17,15.31-2.18,2.84-3.84,5.17-5.17,8.51-1.78,4.48-1.82,7.85-2.13,13.08-.9,15.42-2.54,19.87-1.22,20.37,1.07.4,3.89-1.87,12.47-18.24,1.85-3.6,5.04-8.87,10.34-13.99,3.45-3.33,4.55-3.26,11.86-9.12,1.6-1.29,5.99-4.83,16.06-13.56,6.71-5.82,10.08-8.71,11.92-10.46,4.21-4.02,20.58-20.09,33.9-46.61,1.7-3.38,2.98-6.21,3.81-8.08-.75-14.62-.43-29.37-5.11-44.14Z"/>
  <path class="cls-2" d="M519.24,56.96c-.78,5.55-2.39,12.68-5.77,20.45-2.07,4.75-4.38,8.77-6.57,12.08-3.76,6.61-8.66,14.14-15.01,21.98-6.15,7.6-12.31,13.81-17.84,18.77-18,18.43-34.61,30.43-46.52,38.01-20.51,13.05-34.61,17.78-59.9,35.27-12.2,8.44-21.63,16.13-27.67,21.29,7.19-1.11,13.13-2.2,17.36-3.02,33.97-6.61,57.44-15.12,66.15-18.6.1-.04.2-.08.3-.12.84-.24,29.27-10.99,29.42-10.89,6.31-3.09,13.28-6.94,20.57-11.76,8.24-5.45,15.21-11.02,20.98-16.17,3.82-3.85,8.04-8.66,12.16-14.54,2.51-3.58,5.4-7.72,8.21-13.68,1.37-2.91,4.6-10.24,6.39-20.37,1.07-6.07,1.34-11.59.91-22.5-.36-9.14-1.18-21.46-3.17-36.19Z"/>
  <path class="cls-10" d="M482.85,40.98c-1.23-3.88-4.59-12.87-8.79-22.34-1.6-3.6-2.99-6.54-3.95-8.51.14,7.59-.02,17.92-1.32,30.11-.7,6.55-1.66,15.66-4.16,25.53-4.61,18.23-12.36,30.94-18.24,40.44-11.78,19.01-24.09,31.12-35.88,42.57-11.92,11.58-22.78,20.25-30.71,26.15-4.74,3.99-9.5,8.01-14.27,12.09-4.2,3.58-8.36,7.15-12.48,10.72,2.15-.99,5.2-2.43,8.82-4.26,3.89-1.97,6.74-3.53,7.85-4.13,20.87-11.41,26.92-14.65,37.5-20.69,3.99-2.28,20.93-13.38,24.81-17.3,1.99-1.44,4.06-3.05,6.17-4.84,2.99-2.54,5.62-5.06,7.91-7.46,6.6-5.94,14.65-14.3,22.27-25.44,7.69-11.24,12.59-21.85,15.74-30.2,1.63-10.24,3.39-27.8-1.24-42.43Z"/>
  <path class="cls-8" d="M303.07,93.34c-2.14-1.05-4.74-2.12-7.76-2.98-2.1-.6-4.05-1-5.82-1.27-.57-.09-1.16-.17-1.76-.24-.85-.11-1.69-.19-2.5-.27-1.33.07-2.67.14-4.02.21-1.37.07-2.74.13-4.09.19-8.88-.02-19.74-1.29-31.32-5.47-6.98-2.52-15.99-7.06-26.3-15.14-5.51-4.32-10.11-9.37-12.64-16.47-2.42,4.68-3.36,9.63-3.32,14.27-.07.94-.07,1.5-.04,1.95.04.67.1,1.17.12,1.39.27,2.02.32,3.2.53,4.67.44,3.18,1.46,6.9,1.82,8.21.77,1.82,2.03,4.38,4.05,7.1,3.79,5.08,9.26,9.36,18.85,13.08,16.8,6.5,29.47,4.77,28.38,5.78-1.42,1.32-35.17,6.69-45.92.81,0,0-6.89-3.55-9.93-7.8-.18-.25-1.08-2.48-1.38-2.29-1.67,1.02,2.34,10.37,4.22,13.95,3.95,7.53,8.75,11.16,10.54,12.47.54.39,1,.7,1.32.91.59.41,1.52.99,2.74,1.52,1.49.65,4.36,1.62,9.33,1.22,4.89-.4,13.56-2.28,24.24-6.05l.43-.27c12.73-5.23,14.56-6.25,14.56-6.25,0,0,10.14-4.26,9.93-4.56,0,0,7.2-4.15,15.81-3.75,2.11.1,7.05,1.22,8.82,2.03,0,0,3.81-.14,7.5-.1.67-.27,7.47-.1,8.21-.41-4.39-5.61-8.46-12.53-14.6-16.42Z"/>
  <path class="cls-11" d="M242.94,372.58c2.28-1.62,7.77-5.5,14.92-11.14,4.3-3.39,7.61-6.17,9.61-7.87,7.96-6.77,12.93-11.66,14.5-13.21.73-.73,1.23-1.23,1.52-1.52,5.15-5.13,11.28-11.25,16.74-20.37,2.78-4.64,6.39-11.74,8.92-21.29.41-1.48.93-3.56,1.42-6.08.66-3.43,1.9-9.84,1.42-16.62-.41-5.72-1.89-9.7-4.12-15.53-2.08-5.44-5.47-12.9-11.08-21.16-1.84-2.47-4.16-5.23-7.05-8.03-2.41-2.34-4.77-4.29-6.93-5.88,5.01,7.13,11.93,19.21,14.18,35.4.78,5.61.86,10.74.61,15.2-.27,5.52-1.02,10.25-1.82,13.99-1.22,5.69-2.77,10.05-3.65,12.37-1.39,3.65-3.19,8.37-6.69,13.58-2.41,3.59-5.12,6.65-9.12,10.34-2.74,2.53-11.46,10.57-34.1,22.69-1.44.77-7.59,4.01-15.37,8.05-10.15,5.28-13.69,7.04-19.33,10.17-6.2,3.43-11.15,6.41-14.32,8.35-2.76,1.73-5.79,3.87-8.92,6.49-2.47,2.07-4.63,4.13-6.49,6.08-1.62,1.58-13.35,16.94-14.39,18.65-3.54,6.28-7.58,15.44-9.17,26.98h0c-1.45,16.59-.57,21.47-.57,21.47.74,4.09,1.76,9.36,6,13.47.56.54,2.19,2.05,8.19,4.77,3.55,1.61,8.57,3.62,14.92,5.31,2.41.88,4.73,2.06,7.38,2.09-1.76-3.28-4.06-8.36-5.35-14.9-2.73-13.81.85-24.99,2.92-31.21,4.06-12.19,10.23-20.18,14.41-25.48,11.05-14.05,24.64-23.6,40.81-35.14Z"/>
  <path class="cls-1" d="M320.3,290.29c-.54,3.34-1.26,6.94-2.23,10.74-1.16,4.54-2.48,8.67-3.85,12.37-.36.98-.83,2.23-1.42,3.65-.51,1.22-1.54,3.62-3.04,6.49-1.33,2.54-3.17,5.74-5.68,9.33-4.84,6.6-11.03,14.08-18.85,21.69-7.49,7.29-14.8,13.09-21.29,17.64-3.05,1.99-6.17,4.08-9.33,6.28-3.31,2.31-6.48,4.61-9.53,6.89-4.87,3.65-5.05,4-8.31,6.28-3.18,2.23-3.43,2.2-7.4,4.97-3.48,2.42-5.27,3.68-7.49,5.6-2.61,2.26-4.36,4.19-5.69,5.65-2.56,2.84-5.92,6.95-9.33,12.47-1.66,2.1-3.58,4.97-5.17,8.62-1,2.28-1.67,4.42-2.13,6.28-1.97,10.64-1.32,17.1-.72,20.36.14.75-.03,1.9.82,2.69,3.95,3.62,8.3,6.54,13.59,7.8.55-7.07,1.24-12.91,1.81-17.16.78-5.83,1.21-7.77,1.56-9.15,1.56-6.18,3.97-10.93,5.84-14.07,3.42-6.5,7.02-10.67,10.01-13.43.15-.13.27-.25.48-.44,1.16-1.03,3.04-2.55,11.3-9.04,3.49-2.75,6.42-5.04,8.51-6.69,2.77-2.03,5.54-4.05,8.31-6.08,3.99-2.92,7.98-5.82,11.96-8.72,3.52-2.83,6.7-5.56,9.53-8.11,9.03-8.13,19.21-17.43,27.77-31.42,2.62-4.29,4.44-7.93,5.47-10.14,2.12-4.29,4.89-11.18,5.88-20.07,1.01-9.11-.25-16.59-1.42-21.29Z"/>
  <path class="cls-20" d="M273.47,121.12c-4.61,1.29-7.87,2.71-8.62,3.04-1.18.52-4.68,2.12-8.56,4.66,0,0-13.85,9.08-21.34,24.43-1.16,2.37-2.13,4.87-2.13,4.87-.51,1.45-1.01,2.91-1.52,4.36-.47,2.19-.75,4.2-.91,5.98-.6,6.38.13,11.45.61,14.7.22,1.48.56,3.45,1.11,5.88,1.69,7.36,4,17.45,10.44,26.86,3.27,4.79,4.51,4.85,11.35,14.19,3.56,4.86,4.4,6.43,4.87,7.4,2.92,6.02,3.3,12.42,2.53,18.24-.37,2.91-1.06,6.33-2.33,10.03-2.54,7.38-6.32,12.79-9.24,16.26-1.37,1.44-2.88,2.92-4.54,4.41-2.27,2.05-4.49,3.83-6.59,5.37-1.44,1.27-3.12,2.62-5.07,3.95-2.06,1.42-4.03,2.56-5.82,3.48-13.6,6.84-27.86,12.03-42.25,16.98-6.47,2.23-12.8,4.84-19.19,7.27-14.13,5.38-19.54,8.92-22.44,10.69-3.11,1.9-8.09,5.15-13.69,9.83-5.17,4.32-11.9,10.73-18.55,19.66-2.51,3.62-10.66,15.76-13.99,28.38-.58,2.22-1.52,6.04-1.8,11.21-.06,1.02-.25,5.65.9,11.9,1.69,9.12,5.18,15.83,6.27,17.84,3.92,7.2,8.24,11.55,13.78,17.13,5.21,5.24,10.05,9.16,13.68,11.86-6.02-8.54-7.93-16.02-8.62-20.78-.36-2.47-.41-4.47-.51-8.46-.16-6.28-.34-12.97,1.07-21.08,1.65-9.51,4.76-16.86,6.84-21.13,3.65-7.49,7.9-13.18,11.36-17.18,3.11-3.15,6.22-6.31,9.33-9.46,4.17-3.44,8.99-7.04,14.48-10.59,4.49-2.9,8.82-5.37,12.87-7.46,2.72-1.22,5.46-2.44,8.21-3.65,9.61-4.23,19.14-8.28,28.58-12.16,3.42-1.39,8.4-3.51,14.29-6.39,11.17-5.45,17.03-8.31,23.52-13.89,5.97-5.13,11.55-11.75,12.09-12.42.83-1.03,1.65-2.06,2.49-3.09,4.62-5.71,11.76-15.27,14.31-27.94.83-4.11,1.57-10.59.1-18.8-.76-2.43-1.98-6-3.85-10.14-5.8-12.8-10.24-14.35-17.43-26.15-3.4-5.58-10.3-17.17-11.88-33.01-.46-4.6-.36-8.45-.18-11.08.12-1.68.28-3.44.51-5.27.18-1.44.38-2.82.61-4.16.61-1.72,1.22-3.45,1.82-5.17.71-2.13,1.87-5.1,3.76-8.4,1.31-2.28,7.15-11.84,19.23-18.42,4.62-2.52,20.76-5.54,23.38-5.91-3.11-.63-7.37-1.17-12.42-.82-4.54.32-8,1.3-10.95,2.13Z"/>
  <path class="cls-3" d="M156.74,384.64c-1.81.13-3.67.71-2.54-2.62.94-2.74,2.08-5.12,4.06-7.21,10.61-11.26,23.84-18.67,37.45-25.51,3.68-1.84,7.2-4.06,11.2-5.24,8.34-3.87,16.7-7.71,25.02-11.63,9.16-4.3,17.93-9.28,26.03-15.37,7.36-5.54,14.65-11.15,20.94-17.95.29-.31.53-.7,1.28-.48.07,2.42-1.05,4.46-2.43,6.36-7.72,10.58-17.83,18.46-28.58,25.68-11.3,7.61-24.1,12.3-35.91,18.9-1.78.99-3.78,1.56-5.7,2.33-5.85,3.49-11.79,6.85-17.53,10.52-7.03,4.51-14.08,8.99-20.43,14.49-3.3,2.87-6.59,5.93-11.01,7.16-.62.17-1.22.52-1.84.57Z"/>
</svg>