<?xml version="1.0" standalone="no"?>
<!DOCTYPE svg PUBLIC "-//W3C//DTD SVG 20010904//EN"
 "http://www.w3.org/TR/2001/REC-SVG-20010904/DTD/svg10.dtd">
<svg version="1.0" xmlns="http://www.w3.org/2000/svg"
 width="1536.000000pt" height="1024.000000pt" viewBox="0 0 1536.000000 1024.000000"
 preserveAspectRatio="xMidYMid meet">

<g transform="translate(0.000000,1024.000000) scale(0.100000,-0.100000)"
fill="#000000" stroke="none">
<path d="M5870 7364 c-200 -43 -373 -201 -443 -404 l-22 -65 -3 -1750 c-2
-1514 0 -1760 12 -1828 40 -209 182 -366 401 -444 l80 -28 1775 0 c1688 0
1778 1 1839 18 205 58 365 216 417 412 11 41 14 377 14 1820 0 1964 4 1832
-67 1968 -79 149 -243 271 -409 302 -111 22 -3495 21 -3594 -1z m4057 -636
c-2 -13 -4 -3 -4 22 0 25 2 35 4 23 2 -13 2 -33 0 -45z m0 -80 c-2 -13 -4 -5
-4 17 -1 22 1 32 4 23 2 -10 2 -28 0 -40z m-2217 11 c68 -42 1258 -997 1270
-1020 17 -31 12 -160 -7 -181 -32 -36 -76 -24 -160 45 -43 35 -137 111 -210
169 -73 59 -166 135 -209 170 -42 35 -95 77 -118 95 -22 17 -167 133 -321 257
l-280 225 -5 -1262 c-3 -694 -6 -1263 -8 -1265 -1 -2 -18 -10 -37 -18 -29 -12
-132 -14 -623 -14 -386 0 -599 4 -619 10 -17 6 -35 22 -42 36 -8 18 -11 260
-11 872 l0 847 23 27 c19 22 315 262 1035 837 170 136 250 191 276 191 6 0 27
-10 46 -21z m2217 -156 c-2 -21 -4 -4 -4 37 0 41 2 58 4 38 2 -21 2 -55 0 -75z
m0 -95 c-2 -13 -4 -5 -4 17 -1 22 1 32 4 23 2 -10 2 -28 0 -40z m0 -80 c-2
-13 -4 -5 -4 17 -1 22 1 32 4 23 2 -10 2 -28 0 -40z m0 -440 c-1 -79 -3 -17
-3 137 0 154 2 218 3 143 2 -75 2 -201 0 -280z m0 -320 c-2 -35 -3 -9 -3 57 0
66 1 94 3 63 2 -32 2 -86 0 -120z m0 -120 c-2 -13 -4 -5 -4 17 -1 22 1 32 4
23 2 -10 2 -28 0 -40z m0 -75 c-3 -10 -5 -2 -5 17 0 19 2 27 5 18 2 -10 2 -26
0 -35z m0 -205 c-2 -35 -3 -9 -3 57 0 66 1 94 3 63 2 -32 2 -86 0 -120z m0
-120 c-2 -13 -4 -5 -4 17 -1 22 1 32 4 23 2 -10 2 -28 0 -40z m0 -500 c-1 -90
-3 -19 -3 157 0 176 2 249 3 163 2 -86 2 -230 0 -320z m-1583 421 l26 -20 0
-165 c0 -212 6 -204 -159 -204 -105 0 -121 2 -145 21 l-26 20 0 164 0 164 26
20 c23 18 41 21 139 21 98 0 116 -3 139 -21z m617 -5 l24 -26 3 -508 3 -508
-25 -29 -24 -28 -127 0 c-121 0 -128 1 -146 24 -18 22 -19 46 -19 539 l0 516
22 23 c20 22 29 23 143 23 118 0 122 -1 146 -26z m966 -696 c-2 -24 -4 -7 -4
37 0 44 2 63 4 43 2 -21 2 -57 0 -80z m0 -100 c-2 -13 -4 -5 -4 17 -1 22 1 32
4 23 2 -10 2 -28 0 -40z m0 -260 c-1 -46 -3 -11 -3 77 0 88 2 125 3 83 2 -42
2 -114 0 -160z m0 -140 c-2 -13 -4 -5 -4 17 -1 22 1 32 4 23 2 -10 2 -28 0
-40z m0 -140 c-2 -24 -4 -7 -4 37 0 44 2 63 4 43 2 -21 2 -57 0 -80z m0 -100
c-2 -13 -4 -5 -4 17 -1 22 1 32 4 23 2 -10 2 -28 0 -40z m0 -75 c-3 -10 -5 -2
-5 17 0 19 2 27 5 18 2 -10 2 -26 0 -35z"/>
<path d="M6835 5168 c-44 -24 -45 -29 -45 -324 l0 -283 24 -28 24 -28 137 0
137 0 24 28 24 28 0 270 c0 299 -3 318 -61 338 -41 14 -238 14 -264 -1z"/>
</g>
</svg>
